# xmcd
#
# Track frame offsets: 
#        150
#        15906
#        29698
#        44316
#        58826
#        72317
#        86234
#        99360
#        113473
#        129276
#        142119
#        154834
#        169350
#        183178
#        196988
#        211495
#        224695
#        238472
#        252254
#        266466
#        280717
#        293133
#        306625
#        319067
#        331700
#
# Disc length: 4608 seconds
#
# Revision: 0
# Processed by: cddbd v1.5.2PL0 Copyright (c) Steve Scherf et al.
# Submitted via: ExactAudioCopyFreeDBPlugin 1.0
#
DISCID=7d11fe19
DTITLE=Various Artist - The Definitive Country Blues Collection - Century Of 
DTITLE=The Blues CD3
DYEAR=2014
DGENRE=Blues
TTITLE0=Bessie Smith - Careless Love Blues
TTITLE1=Mamie Smith - Goin' Crazy With The Blues
TTITLE2=Clara Smith - Whip It To A Jelly
TTITLE3=Ma Rainey - See See Rider
TTITLE4=Ida Cox - Mr. Man Pt. 1
TTITLE5=Victoria Spivey - Murder In The First Degree
TTITLE6=Sippie Wallace - I'm A Mighty Tight Woman
TTITLE7=Lucille Bogan and Bessie Smith - Black Angel Blues
TTITLE8=Louise Johnson - Long Ways From Home
TTITLE9=Lovie Austin and Alberta Hunter - Downhearted Blues
TTITLE10=Walter Furry Lewis - Rock Island Blues
TTITLE11=Gus Cannon - Poor Boy, Long Ways From Home
TTITLE12=Hambone Willie Newbern - Rollin' And Tumblin' Blues
TTITLE13=Allen Shaw - Moanin' The Blues
TTITLE14=Memphis Jug Band - He's In The Jailhouse Now
TTITLE15=Robert Wilkins - That's No Way To Get Along
TTITLE16=Frank Stokes - What's The Matter Blues
TTITLE17=Leroy Carr - How Long, How Long Blues
TTITLE18=Cow Cow Davenport - Cow Cow Blues
TTITLE19=Amos Easton - Bricks In My Pillow
TTITLE20=Roosevelt Sykes - The Honeydripper
TTITLE21=Cripple Fulton Allen - Strut That Thing
TTITLE22=Peter Chatman - Blues At Midnight
TTITLE23=Luther Williams - Gangster's Blues
TTITLE24=Scrapper Blackwell - Kokomo Blues
EXTD=
EXTT0=
EXTT1=
EXTT2=
EXTT3=
EXTT4=
EXTT5=
EXTT6=
EXTT7=
EXTT8=
EXTT9=
EXTT10=
EXTT11=
EXTT12=
EXTT13=
EXTT14=
EXTT15=
EXTT16=
EXTT17=
EXTT18=
EXTT19=
EXTT20=
EXTT21=
EXTT22=
EXTT23=
EXTT24=
PLAYORDER=
